# xmcd CD database file
#
# Track frame offsets:
#	150
#	24016
#	35308
#	47427
#	60224
#	74890
#	85820
#	99109
#	122954
#	144075
#	154854
#	170819
#	188596
#	199651
#	214697
#	233242
#	246370
#	267503
#	280086
#	298226
#
# Disc length: 4143 seconds
#
# Revision: 3
# Processed by: cddbd v1.5.1PL0 Copyright (c) Steve Scherf et al.
# Submitted via: CDex 1.51
#
DISCID=1b102d14
DTITLE=Townes Van Zandt - Townes Van Zandt (1-10) Delta Momma Blues (11-20)
DYEAR=2001
DGENRE=Country
TTITLE0=For The Sake Of The Song
TTITLE1=Columbine
TTITLE2=Waitin' Around To Die
TTITLE3=Don't Take It Too Bad
TTITLE4=Colorado Girl
TTITLE5=Lungs
TTITLE6=I'll Be Here In The Morning
TTITLE7=Fare Thee Well, Miss Carousel
TTITLE8=(Quicksilver Daydreams Of) Maria
TTITLE9=None But The Rain
TTITLE10=F.F.V.
TTITLE11=Delta Momma Blues
TTITLE12=Only Him Or Me
TTITLE13=Turnstyled, Junkpiled
TTITLE14=Tower Song
TTITLE15=Come Tomorrow
TTITLE16=Brand New Companion
TTITLE17=Where I Lead Me
TTITLE18=Rake
TTITLE19=Nothin'
EXTD=submitted by TIAMAK, 2001 YEAR: 2001
EXTT0=
EXTT1=
EXTT2=
EXTT3=
EXTT4=
EXTT5=
EXTT6=
EXTT7=
EXTT8=
EXTT9=
EXTT10=
EXTT11=
EXTT12=
EXTT13=
EXTT14=
EXTT15=
EXTT16=
EXTT17=
EXTT18=
EXTT19=
PLAYORDER=
